<svg version="1.0" xmlns="http://www.w3.org/2000/svg"
 width="473.000000pt" height="473.000000pt" viewBox="0 0 473.000000 473.000000"
 preserveAspectRatio="xMidYMid meet">

<g transform="translate(0.000000,473.000000) scale(0.100000,-0.100000)"
fill="#3D50E1" stroke="none">
<path d="M2261 4538 c10 -7 4 -8 -21 -4 -32 6 -33 5 -15 -9 19 -14 18 -15 -8
-5 -36 13 -40 13 -31 -2 4 -7 3 -8 -5 -4 -6 4 -21 4 -32 1 -14 -5 -18 -10 -10
-14 7 -5 0 -8 -16 -8 -24 -1 -171 -79 -309 -165 -21 -13 -47 -27 -57 -31 -10
-4 -15 -11 -12 -17 4 -6 -1 -7 -11 -3 -13 5 -15 3 -9 -7 5 -9 4 -11 -3 -6 -6
4 -49 -14 -94 -40 -46 -26 -182 -103 -303 -172 -121 -68 -292 -165 -380 -215
-341 -193 -388 -223 -445 -285 -60 -65 -98 -129 -126 -213 -17 -50 -19 -114
-22 -940 -3 -980 -4 -970 60 -1099 21 -43 55 -88 102 -135 66 -65 112 -93 644
-395 316 -179 590 -334 610 -346 229 -131 352 -198 394 -215 83 -33 181 -42
275 -25 90 16 143 39 308 134 88 51 358 205 601 342 17 10 93 54 170 98 76 43
245 139 374 212 272 155 342 213 399 334 60 124 60 137 61 1057 0 720 -2 848
-16 920 -16 87 -66 201 -78 181 -11 -19 -26 -14 -26 8 0 11 -7 20 -15 20 -8 0
-15 5 -15 11 0 18 24 4 37 -22 8 -16 13 -18 13 -8 0 9 -16 38 -37 64 l-36 48
-14 -27 c-16 -30 -22 -32 -49 -10 -18 15 -18 15 11 10 27 -6 28 -5 13 7 -10 8
-15 17 -11 20 3 4 12 2 20 -4 23 -20 14 6 -10 30 -23 20 -25 21 -38 4 -12 -15
-12 -16 4 -10 22 8 23 -15 2 -33 -9 -7 -14 -19 -11 -27 3 -7 0 -13 -6 -13 -6
0 -8 11 -5 28 7 32 1 45 -30 60 -16 9 -22 9 -25 0 -3 -7 -9 -8 -18 -3 -10 6
-8 10 10 17 14 5 28 4 36 -3 8 -6 22 -8 31 -5 14 6 15 9 4 16 -8 4 -20 6 -28
3 -8 -3 -13 0 -11 7 2 7 -12 22 -29 32 -19 11 -33 15 -33 9 0 -6 7 -11 16 -11
9 0 12 -5 8 -12 -5 -8 -2 -9 9 -5 10 3 17 2 17 -2 0 -16 -31 -21 -36 -6 -4 8
-13 15 -21 15 -10 0 -12 6 -8 19 4 14 0 23 -16 31 -14 8 -19 8 -15 1 4 -6 -4
-10 -21 -9 -15 1 -37 -2 -48 -6 -18 -7 -19 -7 -3 7 13 10 15 16 6 25 -7 7 -8
12 -2 12 6 0 15 -5 21 -11 6 -6 16 -10 23 -7 6 2 -8 14 -32 28 -31 17 -39 19
-29 7 11 -14 11 -17 0 -17 -11 0 -11 -2 1 -10 8 -5 11 -12 8 -15 -11 -11 -30
6 -24 21 3 7 1 16 -5 19 -5 4 -6 11 -3 17 5 7 2 8 -6 3 -7 -4 -40 -9 -74 -10
-33 -1 -53 0 -43 2 9 3 17 13 17 24 0 10 6 19 14 19 20 0 29 -17 14 -23 -8 -4
-9 -6 -2 -6 6 -1 18 7 25 16 8 9 9 14 3 10 -5 -3 -23 5 -38 18 -28 24 -56 24
-56 -1 0 -7 7 -17 15 -21 12 -7 12 -10 -4 -20 -16 -10 -18 -7 -18 20 0 18 5
38 11 46 8 11 8 13 -2 7 -20 -12 -67 -15 -83 -5 -15 9 -11 11 33 13 15 1 24
-2 21 -8 -4 -5 -1 -6 7 -1 18 11 -16 36 -38 28 -11 -5 -13 -3 -7 8 4 8 5 11 1
7 -4 -3 -17 3 -28 14 -11 11 -26 17 -34 14 -8 -3 -13 -2 -10 3 3 4 -7 14 -22
22 -15 8 -47 26 -71 41 -34 21 -48 25 -62 17 -12 -6 -19 -6 -19 0 0 5 6 12 13
14 9 4 9 6 -1 6 -7 1 -33 15 -58 32 -24 16 -49 27 -56 23 -6 -4 -8 -3 -5 3 4
6 -8 16 -26 23 -17 7 -45 23 -62 35 -42 31 -79 50 -71 36 7 -11 2 -13 -44 -15
-20 -1 -26 3 -26 19 0 12 6 22 13 22 9 0 10 -4 2 -14 -14 -17 2 -17 21 0 12
10 12 9 1 -5 -11 -15 -11 -18 3 -18 9 0 16 6 16 14 0 18 -87 69 -102 60 -7 -4
-8 -3 -4 4 6 11 -6 16 -26 13 -5 0 -8 3 -8 7 0 13 -59 43 -72 36 -7 -4 -8 -3
-4 4 8 14 -30 36 -46 26 -6 -4 -8 -3 -5 3 4 5 -6 16 -21 24 -15 7 -43 23 -62
35 -89 53 -172 94 -182 88 -6 -4 -8 -3 -5 3 13 21 -122 52 -222 51 -67 0 -90
-3 -80 -10z m169 -8 c-34 -11 -60 -11 -35 0 11 5 29 8 40 8 16 0 15 -2 -5 -8z
m58 -9 c19 -12 -9 -22 -39 -14 -22 6 -22 7 -3 14 25 10 27 10 42 0z m112 -51
c0 -5 10 -10 23 -11 21 0 21 -1 2 -9 -25 -11 -41 -12 -32 -3 4 3 2 12 -4 20
-9 9 -8 13 0 13 6 0 11 -4 11 -10z m-535 -48 c-3 -3 -11 0 -18 7 -9 10 -8 11
6 5 10 -3 15 -9 12 -12z m612 10 c8 -5 -2 -8 -25 -9 -28 0 -32 1 -17 7 26 11
28 11 42 2z m73 -74 c0 -6 -6 -5 -15 2 -8 7 -15 14 -15 16 0 2 7 1 15 -2 8 -4
15 -11 15 -16z m61 -2 c12 6 12 5 0 -9 -10 -13 -17 -15 -27 -6 -8 6 -11 16 -8
21 4 6 9 5 14 -2 5 -8 13 -9 21 -4z m90 -76 c6 0 7 5 4 10 -11 17 10 11 33
-11 12 -11 27 -17 34 -13 7 4 8 3 4 -4 -10 -16 -22 -15 -41 4 -12 13 -19 14
-28 5 -16 -16 -23 -14 -24 12 0 12 1 16 4 10 3 -7 9 -13 14 -13z m259 -140
c-11 -7 -9 -11 13 -19 38 -15 46 -13 23 4 -11 8 -16 15 -10 15 5 0 20 -10 34
-23 14 -12 21 -19 16 -14 -13 10 -28 9 -22 -1 3 -5 -1 -9 -9 -9 -8 0 -15 4
-15 8 0 12 -36 17 -54 7 -10 -6 -16 -5 -16 2 0 5 5 10 11 10 8 0 8 5 -1 15
-11 13 -8 15 16 15 22 0 25 -3 14 -10z m-1655 -38 c-3 -3 -11 0 -18 7 -9 10
-8 11 6 5 10 -3 15 -9 12 -12z m1662 -8 c-3 -3 -12 -4 -19 -1 -8 3 -5 6 6 6
11 1 17 -2 13 -5z m147 -20 c14 -5 14 -7 0 -22 -13 -13 -17 -13 -25 -1 -17 27
-8 36 25 23z m52 -47 c1 -9 -2 -15 -7 -11 -5 3 -6 10 -3 16 5 8 1 9 -12 3 -10
-4 -30 -9 -44 -12 -17 -2 -14 1 10 10 42 17 52 16 56 -6z m114 -47 c14 -11 30
-20 37 -20 17 0 25 -17 12 -26 -7 -4 -9 -3 -5 4 4 7 -8 10 -37 8 -37 -3 -43 0
-44 16 -2 19 -1 19 17 3 10 -9 24 -15 31 -13 7 2 -3 14 -22 26 -19 12 -29 22
-24 22 6 0 21 -9 35 -20z m250 -150 c0 -5 -4 -10 -10 -10 -5 0 -10 5 -10 10 0
6 5 10 10 10 6 0 10 -4 10 -10z m210 -135 c0 -1 -12 -2 -26 -2 -17 0 -22 2
-13 7 10 7 39 3 39 -5z m254 -186 c-19 -21 -18 -37 2 -35 9 0 19 -4 21 -10 2
-7 -7 -11 -22 -11 -14 0 -26 3 -26 8 -5 32 -3 72 4 76 4 2 4 10 1 16 -4 7 2 3
13 -8 18 -17 19 -22 7 -36z m-1624 -809 l680 0 0 -168 0 -168 -297 -53 c-164
-29 -470 -82 -680 -119 l-383 -66 0 -438 0 -438 -220 0 -220 0 0 1003 1 1002
42 21 c96 46 344 178 367 195 l25 17 3 -394 2 -394 680 0z m1693 733 c-4 -9
-2 -14 4 -10 5 3 9 -4 9 -16 -1 -13 4 -21 12 -19 8 1 11 -2 7 -9 -5 -7 -11 -7
-17 -1 -6 6 -17 8 -24 5 -8 -3 -14 0 -14 7 0 6 5 8 10 5 6 -3 10 0 10 9 0 8
-6 17 -12 19 -10 4 -9 8 2 16 20 14 20 14 13 -6z m-1011 -308 l-3 -295 -219 0
-220 0 0 185 c0 102 4 185 9 185 20 0 181 97 174 105 -5 4 -3 5 4 1 7 -3 47
12 90 35 116 63 147 78 158 79 7 0 9 -103 7 -295z m-2 -1385 l0 -490 -220 0
-220 0 0 454 0 454 73 12 c39 7 128 23 197 35 69 13 135 23 148 24 l22 1 0
-490z"/>
<path d="M3804 3802 c3 -5 0 -13 -6 -15 -9 -4 -10 -6 -1 -6 17 -1 25 16 12 25
-7 4 -9 3 -5 -4z" fill="#fff" />
</g>
</svg>
